<svg width="14" height="15" viewBox="0 0 14 15" fill="none" xmlns="http://www.w3.org/2000/svg">
<path d="M1.83057 13.267H4.08057V11.017H1.83057V13.267ZM4.58057 13.267H7.08057V11.017H4.58057V13.267ZM1.83057 10.517H4.08057V8.01697H1.83057V10.517ZM4.58057 10.517H7.08057V8.01697H4.58057V10.517ZM1.83057 7.51697H4.08057V5.26697H1.83057V7.51697ZM7.58057 13.267H10.0806V11.017H7.58057V13.267ZM4.58057 7.51697H7.08057V5.26697H4.58057V7.51697ZM10.5806 13.267H12.8306V11.017H10.5806V13.267ZM7.58057 10.517H10.0806V8.01697H7.58057V10.517ZM4.83057 3.76697V1.51697C4.83057 1.44926 4.80452 1.39197 4.75244 1.34509C4.70557 1.29301 4.64827 1.26697 4.58057 1.26697H4.08057C4.01286 1.26697 3.95296 1.29301 3.90088 1.34509C3.854 1.39197 3.83057 1.44926 3.83057 1.51697V3.76697C3.83057 3.83468 3.854 3.89457 3.90088 3.94665C3.95296 3.99353 4.01286 4.01697 4.08057 4.01697H4.58057C4.64827 4.01697 4.70557 3.99353 4.75244 3.94665C4.80452 3.89457 4.83057 3.83468 4.83057 3.76697ZM10.5806 10.517H12.8306V8.01697H10.5806V10.517ZM7.58057 7.51697H10.0806V5.26697H7.58057V7.51697ZM10.5806 7.51697H12.8306V5.26697H10.5806V7.51697ZM10.8306 3.76697V1.51697C10.8306 1.44926 10.8045 1.39197 10.7524 1.34509C10.7056 1.29301 10.6483 1.26697 10.5806 1.26697H10.0806C10.0129 1.26697 9.95296 1.29301 9.90088 1.34509C9.854 1.39197 9.83057 1.44926 9.83057 1.51697V3.76697C9.83057 3.83468 9.854 3.89457 9.90088 3.94665C9.95296 3.99353 10.0129 4.01697 10.0806 4.01697H10.5806C10.6483 4.01697 10.7056 3.99353 10.7524 3.94665C10.8045 3.89457 10.8306 3.83468 10.8306 3.76697ZM13.8306 3.26697V13.267C13.8306 13.5378 13.7316 13.7722 13.5337 13.9701C13.3358 14.168 13.1014 14.267 12.8306 14.267H1.83057C1.55973 14.267 1.32536 14.168 1.12744 13.9701C0.929525 13.7722 0.830566 13.5378 0.830566 13.267V3.26697C0.830566 2.99613 0.929525 2.76176 1.12744 2.56384C1.32536 2.36593 1.55973 2.26697 1.83057 2.26697H2.83057V1.51697C2.83057 1.17322 2.95296 0.878946 3.19775 0.634155C3.44255 0.389363 3.73682 0.266967 4.08057 0.266967H4.58057C4.92432 0.266967 5.21859 0.389363 5.46338 0.634155C5.70817 0.878946 5.83057 1.17322 5.83057 1.51697V2.26697H8.83057V1.51697C8.83057 1.17322 8.95296 0.878946 9.19775 0.634155C9.44255 0.389363 9.73682 0.266967 10.0806 0.266967H10.5806C10.9243 0.266967 11.2186 0.389363 11.4634 0.634155C11.7082 0.878946 11.8306 1.17322 11.8306 1.51697V2.26697H12.8306C13.1014 2.26697 13.3358 2.36593 13.5337 2.56384C13.7316 2.76176 13.8306 2.99613 13.8306 3.26697Z" fill="#FF5A3C"/>
</svg>
