<svg width="15" height="12" viewBox="0 0 15 12" fill="none" xmlns="http://www.w3.org/2000/svg">
<path d="M4.24097 4.71997C3.98315 4.95435 3.98315 5.35278 4.24097 5.58716L8.36597 9.14966C8.71753 9.45435 9.30347 9.19653 9.30347 8.70435V6.7356C11.8347 7.04028 12.8425 8.11841 11.9285 11.0012C11.8113 11.3762 12.28 11.6809 12.5847 11.4465C13.616 10.6965 14.5535 9.26685 14.5535 7.83716C14.5535 4.74341 12.3269 3.78247 9.30347 3.52466V1.60278C9.30347 1.1106 8.71753 0.852783 8.36597 1.15747L4.24097 4.71997ZM1.24097 5.58716L5.36597 9.14966C5.71753 9.45435 6.30347 9.19653 6.30347 8.70435V8.35278L3.74878 6.14966C3.46753 5.91528 3.28003 5.54028 3.28003 5.16528C3.28003 5.16528 3.30347 5.16528 3.30347 5.14185C3.30347 4.76685 3.46753 4.39185 3.74878 4.15747L6.30347 1.95435V1.60278C6.30347 1.1106 5.71753 0.852783 5.36597 1.15747L1.24097 4.71997C0.983154 4.95435 0.983154 5.35278 1.24097 5.58716Z" fill="#FF5A3C"/>
</svg>
