<svg width="15" height="12" viewBox="0 0 15 12" fill="none" xmlns="http://www.w3.org/2000/svg">
<path d="M3.98267 4.72009C3.72485 4.95447 3.72485 5.35291 3.98267 5.58728L8.10767 9.14978C8.45923 9.45447 9.04517 9.19666 9.04517 8.70447V6.73572C11.5764 7.04041 12.5842 8.11853 11.6702 11.0013C11.553 11.3763 12.0217 11.681 12.3264 11.4467C13.3577 10.6967 14.2952 9.26697 14.2952 7.83728C14.2952 4.74353 12.0686 3.78259 9.04517 3.52478V1.60291C9.04517 1.11072 8.45923 0.852905 8.10767 1.15759L3.98267 4.72009ZM0.982666 5.58728L5.10767 9.14978C5.45923 9.45447 6.04517 9.19666 6.04517 8.70447V8.35291L3.49048 6.14978C3.20923 5.91541 3.02173 5.54041 3.02173 5.16541C3.02173 5.16541 3.04517 5.16541 3.04517 5.14197C3.04517 4.76697 3.20923 4.39197 3.49048 4.15759L6.04517 1.95447V1.60291C6.04517 1.11072 5.45923 0.852905 5.10767 1.15759L0.982666 4.72009C0.724854 4.95447 0.724854 5.35291 0.982666 5.58728Z" fill="#071C1F"/>
</svg>
