<svg width="34" height="31" viewBox="0 0 34 31" fill="none" xmlns="http://www.w3.org/2000/svg">
<path d="M34 0H0V31H34V0Z" fill="#FF5A3C"/>
<path d="M21.1836 16.375H18.5469V24.25H15.0312V16.375H12.1836V13.1055H15.0312V10.6445C15.0312 9.23828 15.418 8.16016 16.1914 7.41016C16.9648 6.63672 17.9961 6.25 19.2852 6.25C19.6602 6.25 20.0586 6.27344 20.4805 6.32031C20.9023 6.34375 21.2305 6.37891 21.4648 6.42578L21.8164 6.46094V9.23828H20.4102C19.7539 9.23828 19.2734 9.41406 18.9688 9.76562C18.6875 10.0938 18.5469 10.5039 18.5469 10.9961V13.1055H21.6758L21.1836 16.375Z" fill="white"/>
</svg>
