<svg width="34" height="31" viewBox="0 0 34 31" fill="none" xmlns="http://www.w3.org/2000/svg">
<path d="M34 0H0V31H34V0Z" fill="#F7F7FA"/>
<path d="M14.1523 12.4023C14.9492 11.6055 15.9102 11.207 17.0352 11.207C18.1602 11.207 19.1094 11.6055 19.8828 12.4023C20.6797 13.1758 21.0781 14.125 21.0781 15.25C21.0781 16.375 20.6797 17.3359 19.8828 18.1328C19.1094 18.9062 18.1602 19.293 17.0352 19.293C15.9102 19.293 14.9492 18.9062 14.1523 18.1328C13.3789 17.3359 12.9922 16.375 12.9922 15.25C12.9922 14.125 13.3789 13.1758 14.1523 12.4023ZM15.1719 17.1133C15.6875 17.6289 16.3086 17.8867 17.0352 17.8867C17.7617 17.8867 18.3828 17.6289 18.8984 17.1133C19.4141 16.5977 19.6719 15.9766 19.6719 15.25C19.6719 14.5234 19.4141 13.9023 18.8984 13.3867C18.3828 12.8711 17.7617 12.6133 17.0352 12.6133C16.3086 12.6133 15.6875 12.8711 15.1719 13.3867C14.6562 13.9023 14.3984 14.5234 14.3984 15.25C14.3984 15.9766 14.6562 16.5977 15.1719 17.1133ZM21.8867 10.3984C22.0742 10.5625 22.168 10.7734 22.168 11.0312C22.168 11.2891 22.0742 11.5117 21.8867 11.6992C21.7227 11.8867 21.5117 11.9805 21.2539 11.9805C20.9961 11.9805 20.7734 11.8867 20.5859 11.6992C20.3984 11.5117 20.3047 11.2891 20.3047 11.0312C20.3047 10.7734 20.3984 10.5625 20.5859 10.3984C20.7734 10.2109 20.9961 10.1172 21.2539 10.1172C21.5117 10.1172 21.7227 10.2109 21.8867 10.3984ZM24.875 12.0156C24.8984 12.6484 24.9102 13.7266 24.9102 15.25C24.9102 16.7734 24.8984 17.8516 24.875 18.4844C24.8047 19.9141 24.3711 21.0273 23.5742 21.8242C22.8008 22.5977 21.6992 23.0078 20.2695 23.0547C19.6367 23.1016 18.5586 23.125 17.0352 23.125C15.5117 23.125 14.4336 23.1016 13.8008 23.0547C12.3711 22.9844 11.2578 22.5625 10.4609 21.7891C9.6875 21.0156 9.27734 19.9141 9.23047 18.4844C9.18359 17.8516 9.16016 16.7734 9.16016 15.25C9.16016 13.7266 9.18359 12.6367 9.23047 11.9805C9.30078 10.5742 9.72266 9.48438 10.4961 8.71094C11.2695 7.91406 12.3711 7.48047 13.8008 7.41016C14.4336 7.38672 15.5117 7.375 17.0352 7.375C18.5586 7.375 19.6367 7.38672 20.2695 7.41016C21.6992 7.48047 22.8008 7.91406 23.5742 8.71094C24.3711 9.48438 24.8047 10.5859 24.875 12.0156ZM23.1875 19.8906C23.2578 19.7031 23.3164 19.4688 23.3633 19.1875C23.4102 18.8828 23.4453 18.5312 23.4688 18.1328C23.4922 17.7109 23.5039 17.3711 23.5039 17.1133C23.5039 16.8555 23.5039 16.4922 23.5039 16.0234C23.5039 15.5547 23.5039 15.2969 23.5039 15.25C23.5039 15.1797 23.5039 14.9219 23.5039 14.4766C23.5039 14.0078 23.5039 13.6445 23.5039 13.3867C23.5039 13.1289 23.4922 12.8008 23.4688 12.4023C23.4453 11.9805 23.4102 11.6289 23.3633 11.3477C23.3164 11.043 23.2578 10.7969 23.1875 10.6094C22.9062 9.88281 22.4023 9.37891 21.6758 9.09766C21.4883 9.02734 21.2422 8.96875 20.9375 8.92188C20.6562 8.875 20.3047 8.83984 19.8828 8.81641C19.4844 8.79297 19.1562 8.78125 18.8984 8.78125C18.6641 8.78125 18.3008 8.78125 17.8086 8.78125C17.3398 8.78125 17.082 8.78125 17.0352 8.78125C16.9883 8.78125 16.7305 8.78125 16.2617 8.78125C15.793 8.78125 15.4297 8.78125 15.1719 8.78125C14.9141 8.78125 14.5742 8.79297 14.1523 8.81641C13.7539 8.83984 13.4023 8.875 13.0977 8.92188C12.8164 8.96875 12.582 9.02734 12.3945 9.09766C11.668 9.37891 11.1641 9.88281 10.8828 10.6094C10.8125 10.7969 10.7539 11.043 10.707 11.3477C10.6602 11.6289 10.625 11.9805 10.6016 12.4023C10.5781 12.8008 10.5664 13.1289 10.5664 13.3867C10.5664 13.6211 10.5664 13.9844 10.5664 14.4766C10.5664 14.9453 10.5664 15.2031 10.5664 15.25C10.5664 15.2969 10.5664 15.5547 10.5664 16.0234C10.5664 16.4922 10.5664 16.8555 10.5664 17.1133C10.5664 17.3711 10.5781 17.7109 10.6016 18.1328C10.625 18.5312 10.6602 18.8828 10.707 19.1875C10.7539 19.4688 10.8125 19.7031 10.8828 19.8906C11.1875 20.6172 11.6914 21.1211 12.3945 21.4023C12.582 21.4727 12.8164 21.5312 13.0977 21.5781C13.4023 21.625 13.7539 21.6602 14.1523 21.6836C14.5742 21.707 14.9023 21.7188 15.1367 21.7188C15.3945 21.7188 15.7578 21.7188 16.2266 21.7188C16.7188 21.7188 16.9883 21.7188 17.0352 21.7188C17.1055 21.7188 17.3633 21.7188 17.8086 21.7188C18.2773 21.7188 18.6406 21.7188 18.8984 21.7188C19.1562 21.7188 19.4844 21.707 19.8828 21.6836C20.3047 21.6602 20.6562 21.625 20.9375 21.5781C21.2422 21.5312 21.4883 21.4727 21.6758 21.4023C22.4023 21.0977 22.9062 20.5938 23.1875 19.8906Z" fill="black" fill-opacity="0.9"/>
</svg>
