<svg width="34" height="32" viewBox="0 0 34 32" fill="none" xmlns="http://www.w3.org/2000/svg">
<path d="M34 0.329834H0V31.3298H34V0.329834Z" fill="#F7F7FA"/>
<path d="M24.1367 11.5938C24.1602 11.6875 24.1719 11.8398 24.1719 12.0508C24.1719 13.293 23.9375 14.5352 23.4688 15.7773C23 16.9961 22.332 18.1211 21.4648 19.1523C20.6211 20.1602 19.5195 20.9805 18.1602 21.6133C16.8008 22.2461 15.3008 22.5625 13.6602 22.5625C11.5977 22.5625 9.71094 22.0117 8 20.9102C8.25781 20.9336 8.55078 20.9453 8.87891 20.9453C10.5898 20.9453 12.125 20.418 13.4844 19.3633C12.6641 19.3633 11.9375 19.1289 11.3047 18.6602C10.6953 18.168 10.2734 17.5586 10.0391 16.832C10.2734 16.8555 10.4961 16.8672 10.707 16.8672C11.0352 16.8672 11.3633 16.832 11.6914 16.7617C10.8477 16.5742 10.1445 16.1406 9.58203 15.4609C9.01953 14.7812 8.73828 14.0078 8.73828 13.1406V13.0703C9.25391 13.375 9.80469 13.5391 10.3906 13.5625C9.28906 12.8125 8.73828 11.7812 8.73828 10.4688C8.73828 9.8125 8.91406 9.19141 9.26562 8.60547C10.1797 9.75391 11.293 10.668 12.6055 11.3477C13.9414 12.0273 15.3594 12.4023 16.8594 12.4727C16.8125 12.1914 16.7891 11.9102 16.7891 11.6289C16.7891 10.6211 17.1406 9.75391 17.8438 9.02734C18.5703 8.30078 19.4375 7.9375 20.4453 7.9375C21.5234 7.9375 22.4258 8.32422 23.1523 9.09766C23.9961 8.93359 24.7812 8.64062 25.5078 8.21875C25.2266 9.08594 24.6875 9.76562 23.8906 10.2578C24.5938 10.1641 25.2969 9.96484 26 9.66016C25.4844 10.4102 24.8633 11.0547 24.1367 11.5938Z" fill="black" fill-opacity="0.9"/>
</svg>
