<svg width="12" height="9" viewBox="0 0 12 9" fill="none" xmlns="http://www.w3.org/2000/svg">
<path d="M4.97189 8.481C4.8637 8.58304 4.7206 8.63987 4.57189 8.63987C4.42317 8.63987 4.28008 8.58304 4.17189 8.481L0.999889 5.46C0.921902 5.38747 0.859702 5.29965 0.817169 5.20201C0.774637 5.10437 0.752686 4.99901 0.752686 4.8925C0.752686 4.786 0.774637 4.68064 0.817169 4.583C0.859702 4.48536 0.921902 4.39753 0.999889 4.325L1.39989 3.947C1.56175 3.79587 1.77494 3.7118 1.99639 3.7118C2.21784 3.7118 2.43103 3.79587 2.59289 3.947L4.57389 5.833L9.93289 0.733004C10.0947 0.581866 10.3079 0.497803 10.5294 0.497803C10.7508 0.497803 10.964 0.581866 11.1259 0.733004L11.5259 1.111C11.6039 1.18353 11.6661 1.27136 11.7086 1.369C11.7511 1.46664 11.7731 1.572 11.7731 1.6785C11.7731 1.78501 11.7511 1.89037 11.7086 1.98801C11.6661 2.08565 11.6039 2.17347 11.5259 2.246L4.97189 8.481Z" fill="#FF5A3C"/>
</svg>
