<svg width="12" height="9" viewBox="0 0 12 9" fill="none" xmlns="http://www.w3.org/2000/svg">
<path d="M4.97189 8.00005C4.8637 8.10208 4.7206 8.15891 4.57189 8.15891C4.42317 8.15891 4.28008 8.10208 4.17189 8.00005L0.999889 4.97905C0.921902 4.90652 0.859702 4.81869 0.817169 4.72105C0.774637 4.62341 0.752686 4.51805 0.752686 4.41155C0.752686 4.30504 0.774637 4.19969 0.817169 4.10205C0.859702 4.0044 0.921902 3.91658 0.999889 3.84405L1.39989 3.46605C1.56175 3.31491 1.77494 3.23085 1.99639 3.23085C2.21784 3.23085 2.43103 3.31491 2.59289 3.46605L4.57389 5.35205L9.93289 0.252047C10.0947 0.100909 10.3079 0.0168457 10.5294 0.0168457C10.7508 0.0168457 10.964 0.100909 11.1259 0.252047L11.5259 0.630047C11.6039 0.702578 11.6661 0.790404 11.7086 0.888045C11.7511 0.985686 11.7731 1.09104 11.7731 1.19755C11.7731 1.30405 11.7511 1.40941 11.7086 1.50705C11.6661 1.60469 11.6039 1.69252 11.5259 1.76505L4.97189 8.00005Z" fill="white"/>
</svg>
