<svg width="15" height="15" viewBox="0 0 15 15" fill="none" xmlns="http://www.w3.org/2000/svg">
<path d="M0 7.75586C0 8.11133 0.136719 8.43945 0.382812 8.68555L6.15234 14.4551C6.67188 14.9746 7.51953 14.9746 8.01172 14.4551L13.5898 8.87695C14.1094 8.38477 14.1094 7.53711 13.5898 7.01758L7.82031 1.24805C7.57422 1.00195 7.24609 0.837891 6.89062 0.837891H1.3125C0.574219 0.837891 0 1.43945 0 2.15039V7.75586ZM3.0625 2.58789C3.77344 2.58789 4.375 3.18945 4.375 3.90039C4.375 4.63867 3.77344 5.21289 3.0625 5.21289C2.32422 5.21289 1.75 4.63867 1.75 3.90039C1.75 3.18945 2.32422 2.58789 3.0625 2.58789Z" fill="#FF5A3C"/>
</svg>
