<svg width="15" height="13" viewBox="0 0 15 13" fill="none" xmlns="http://www.w3.org/2000/svg">
<path d="M5.03906 6.32254C5.25112 6.11049 5.35714 5.85658 5.35714 5.56083C5.35714 5.26507 5.25112 5.01395 5.03906 4.80748C4.83259 4.59542 4.58147 4.4894 4.28571 4.4894C3.98996 4.4894 3.73605 4.59542 3.524 4.80748C3.31752 5.01395 3.21429 5.26507 3.21429 5.56083C3.21429 5.85658 3.31752 6.11049 3.524 6.32254C3.73605 6.52902 3.98996 6.63225 4.28571 6.63225C4.58147 6.63225 4.83259 6.52902 5.03906 6.32254ZM8.25335 6.32254C8.4654 6.11049 8.57143 5.85658 8.57143 5.56083C8.57143 5.26507 8.4654 5.01395 8.25335 4.80748C8.04688 4.59542 7.79576 4.4894 7.5 4.4894C7.20424 4.4894 6.95034 4.59542 6.73828 4.80748C6.53181 5.01395 6.42857 5.26507 6.42857 5.56083C6.42857 5.85658 6.53181 6.11049 6.73828 6.32254C6.95034 6.52902 7.20424 6.63225 7.5 6.63225C7.79576 6.63225 8.04688 6.52902 8.25335 6.32254ZM11.4676 6.32254C11.6797 6.11049 11.7857 5.85658 11.7857 5.56083C11.7857 5.26507 11.6797 5.01395 11.4676 4.80748C11.2612 4.59542 11.01 4.4894 10.7143 4.4894C10.4185 4.4894 10.1646 4.59542 9.95257 4.80748C9.74609 5.01395 9.64286 5.26507 9.64286 5.56083C9.64286 5.85658 9.74609 6.11049 9.95257 6.32254C10.1646 6.52902 10.4185 6.63225 10.7143 6.63225C11.01 6.63225 11.2612 6.52902 11.4676 6.32254ZM13.9955 2.87388C14.6652 3.6942 15 4.58984 15 5.56083C15 6.53181 14.6652 7.43025 13.9955 8.25614C13.3259 9.07645 12.4163 9.72656 11.2667 10.2065C10.1172 10.6808 8.86161 10.918 7.5 10.918C6.88616 10.918 6.29743 10.8677 5.73382 10.7673C4.76842 11.7327 3.55469 12.3717 2.09263 12.6842C1.80246 12.74 1.5625 12.7762 1.37277 12.793C1.3058 12.7985 1.24442 12.7818 1.18862 12.7427C1.13281 12.7037 1.09654 12.6535 1.0798 12.5921C1.05748 12.5084 1.11328 12.4051 1.24721 12.2824C1.27511 12.2545 1.33929 12.1931 1.43973 12.0982C1.54576 12.0089 1.6183 11.9448 1.65737 11.9057C1.69643 11.8666 1.7606 11.7941 1.84989 11.6881C1.94475 11.5876 2.01172 11.5011 2.05078 11.4286C2.09542 11.356 2.15402 11.2528 2.22656 11.1189C2.29911 10.9849 2.35491 10.851 2.39397 10.7171C2.43304 10.5831 2.4721 10.4241 2.51116 10.24C2.5558 10.0502 2.59208 9.84654 2.61998 9.62891C1.80525 9.12667 1.1635 8.524 0.694754 7.82087C0.231585 7.11217 0 6.35882 0 5.56083C0 4.58984 0.334821 3.6942 1.00446 2.87388C1.67411 2.04799 2.58371 1.39788 3.73326 0.923548C4.88281 0.443638 6.13839 0.203683 7.5 0.203683C8.86161 0.203683 10.1172 0.443638 11.2667 0.923548C12.4163 1.39788 13.3259 2.04799 13.9955 2.87388Z" fill="#FF5A3C"/>
</svg>
