<svg width="15" height="16" viewBox="0 0 15 16" fill="none" xmlns="http://www.w3.org/2000/svg">
<path d="M7.5 9.23047C9.81445 9.23047 11.7188 7.35547 11.7188 5.01172C11.7188 2.69727 9.81445 0.792969 7.5 0.792969C5.15625 0.792969 3.28125 2.69727 3.28125 5.01172C3.28125 7.35547 5.15625 9.23047 7.5 9.23047ZM11.25 10.168H9.60938C8.96484 10.4902 8.26172 10.6367 7.5 10.6367C6.73828 10.6367 6.00586 10.4902 5.36133 10.168H3.75C1.66992 10.168 0 11.8672 0 13.918V14.3867C0 15.1777 0.615234 15.793 1.40625 15.793H13.5938C14.3555 15.793 15 15.1777 15 14.3867V13.918C15 11.8672 13.3008 10.168 11.25 10.168Z" fill="#FF5A3C"/>
</svg>
