<svg width="16" height="17" viewBox="0 0 16 17" fill="none" xmlns="http://www.w3.org/2000/svg">
<path d="M5.06396 5.40222C5.86084 4.60535 6.82178 4.20691 7.94678 4.20691C9.07178 4.20691 10.021 4.60535 10.7944 5.40222C11.5913 6.17566 11.9897 7.12488 11.9897 8.24988C11.9897 9.37488 11.5913 10.3358 10.7944 11.1327C10.021 11.9061 9.07178 12.2928 7.94678 12.2928C6.82178 12.2928 5.86084 11.9061 5.06396 11.1327C4.29053 10.3358 3.90381 9.37488 3.90381 8.24988C3.90381 7.12488 4.29053 6.17566 5.06396 5.40222ZM6.0835 10.1132C6.59912 10.6288 7.22021 10.8866 7.94678 10.8866C8.67334 10.8866 9.29443 10.6288 9.81006 10.1132C10.3257 9.59753 10.5835 8.97644 10.5835 8.24988C10.5835 7.52332 10.3257 6.90222 9.81006 6.3866C9.29443 5.87097 8.67334 5.61316 7.94678 5.61316C7.22021 5.61316 6.59912 5.87097 6.0835 6.3866C5.56787 6.90222 5.31006 7.52332 5.31006 8.24988C5.31006 8.97644 5.56787 9.59753 6.0835 10.1132ZM12.7983 3.39832C12.9858 3.56238 13.0796 3.77332 13.0796 4.03113C13.0796 4.28894 12.9858 4.5116 12.7983 4.6991C12.6343 4.8866 12.4233 4.98035 12.1655 4.98035C11.9077 4.98035 11.6851 4.8866 11.4976 4.6991C11.3101 4.5116 11.2163 4.28894 11.2163 4.03113C11.2163 3.77332 11.3101 3.56238 11.4976 3.39832C11.6851 3.21082 11.9077 3.11707 12.1655 3.11707C12.4233 3.11707 12.6343 3.21082 12.7983 3.39832ZM15.7866 5.0155C15.8101 5.64832 15.8218 6.72644 15.8218 8.24988C15.8218 9.77332 15.8101 10.8514 15.7866 11.4843C15.7163 12.9139 15.2827 14.0272 14.4858 14.8241C13.7124 15.5975 12.6108 16.0077 11.1812 16.0546C10.5483 16.1014 9.47021 16.1249 7.94678 16.1249C6.42334 16.1249 5.34521 16.1014 4.7124 16.0546C3.28271 15.9843 2.16943 15.5624 1.37256 14.7889C0.599121 14.0155 0.188965 12.9139 0.14209 11.4843C0.0952148 10.8514 0.0717773 9.77332 0.0717773 8.24988C0.0717773 6.72644 0.0952148 5.6366 0.14209 4.98035C0.212402 3.5741 0.634277 2.48425 1.40771 1.71082C2.18115 0.91394 3.28271 0.480347 4.7124 0.410034C5.34521 0.386597 6.42334 0.374878 7.94678 0.374878C9.47021 0.374878 10.5483 0.386597 11.1812 0.410034C12.6108 0.480347 13.7124 0.91394 14.4858 1.71082C15.2827 2.48425 15.7163 3.58582 15.7866 5.0155ZM14.0991 12.8905C14.1694 12.703 14.228 12.4686 14.2749 12.1874C14.3218 11.8827 14.3569 11.5311 14.3804 11.1327C14.4038 10.7108 14.4155 10.371 14.4155 10.1132C14.4155 9.85535 14.4155 9.49207 14.4155 9.02332C14.4155 8.55457 14.4155 8.29675 14.4155 8.24988C14.4155 8.17957 14.4155 7.92175 14.4155 7.47644C14.4155 7.00769 14.4155 6.64441 14.4155 6.3866C14.4155 6.12878 14.4038 5.80066 14.3804 5.40222C14.3569 4.98035 14.3218 4.62878 14.2749 4.34753C14.228 4.04285 14.1694 3.79675 14.0991 3.60925C13.8179 2.88269 13.314 2.37878 12.5874 2.09753C12.3999 2.02722 12.1538 1.96863 11.8491 1.92175C11.5679 1.87488 11.2163 1.83972 10.7944 1.81628C10.396 1.79285 10.0679 1.78113 9.81006 1.78113C9.57568 1.78113 9.2124 1.78113 8.72021 1.78113C8.25146 1.78113 7.99365 1.78113 7.94678 1.78113C7.8999 1.78113 7.64209 1.78113 7.17334 1.78113C6.70459 1.78113 6.34131 1.78113 6.0835 1.78113C5.82568 1.78113 5.48584 1.79285 5.06396 1.81628C4.66553 1.83972 4.31396 1.87488 4.00928 1.92175C3.72803 1.96863 3.49365 2.02722 3.30615 2.09753C2.57959 2.37878 2.07568 2.88269 1.79443 3.60925C1.72412 3.79675 1.66553 4.04285 1.61865 4.34753C1.57178 4.62878 1.53662 4.98035 1.51318 5.40222C1.48975 5.80066 1.47803 6.12878 1.47803 6.3866C1.47803 6.62097 1.47803 6.98425 1.47803 7.47644C1.47803 7.94519 1.47803 8.203 1.47803 8.24988C1.47803 8.29675 1.47803 8.55457 1.47803 9.02332C1.47803 9.49207 1.47803 9.85535 1.47803 10.1132C1.47803 10.371 1.48975 10.7108 1.51318 11.1327C1.53662 11.5311 1.57178 11.8827 1.61865 12.1874C1.66553 12.4686 1.72412 12.703 1.79443 12.8905C2.09912 13.6171 2.60303 14.121 3.30615 14.4022C3.49365 14.4725 3.72803 14.5311 4.00928 14.578C4.31396 14.6249 4.66553 14.66 5.06396 14.6835C5.48584 14.7069 5.81396 14.7186 6.04834 14.7186C6.30615 14.7186 6.66943 14.7186 7.13818 14.7186C7.63037 14.7186 7.8999 14.7186 7.94678 14.7186C8.01709 14.7186 8.2749 14.7186 8.72021 14.7186C9.18896 14.7186 9.55225 14.7186 9.81006 14.7186C10.0679 14.7186 10.396 14.7069 10.7944 14.6835C11.2163 14.66 11.5679 14.6249 11.8491 14.578C12.1538 14.5311 12.3999 14.4725 12.5874 14.4022C13.314 14.0975 13.8179 13.5936 14.0991 12.8905Z" fill="white"/>
</svg>
