<svg width="18" height="18" viewBox="0 0 18 18" fill="none" xmlns="http://www.w3.org/2000/svg">
<path d="M15.189 3.09753C16.8999 4.78503 17.7554 6.83582 17.7554 9.24988C17.7554 11.6639 16.8999 13.7264 15.189 15.4374C13.5015 17.1249 11.4507 17.9686 9.03662 17.9686C8.146 17.9686 7.29053 17.8397 6.47021 17.5819C7.03271 16.6444 7.38428 15.8827 7.5249 15.2968L8.0874 13.2225C8.22803 13.5038 8.48584 13.7382 8.86084 13.9257C9.23584 14.1132 9.646 14.2069 10.0913 14.2069C11.3804 14.2069 12.4468 13.6913 13.2905 12.66C14.1577 11.6053 14.5913 10.3163 14.5913 8.79285C14.5913 7.36316 14.0757 6.16785 13.0444 5.20691C12.0132 4.24597 10.7358 3.7655 9.2124 3.7655C7.43115 3.7655 6.0249 4.28113 4.99365 5.31238C3.98584 6.34363 3.48193 7.58582 3.48193 9.03894C3.48193 9.71863 3.646 10.3983 3.97412 11.078C4.30225 11.7343 4.72412 12.1796 5.23975 12.4139C5.40381 12.4843 5.49756 12.4491 5.521 12.3085C5.54443 12.2616 5.57959 12.1093 5.62646 11.8514C5.69678 11.5702 5.74365 11.3944 5.76709 11.3241C5.79053 11.2303 5.76709 11.1483 5.69678 11.078C5.2749 10.5389 5.06396 9.87097 5.06396 9.0741C5.06396 8.06628 5.41553 7.18738 6.11865 6.43738C6.84521 5.66394 7.80615 5.27722 9.00146 5.27722C10.0796 5.27722 10.9585 5.61707 11.6382 6.29675C12.3179 6.953 12.6577 7.79675 12.6577 8.828C12.6577 9.99988 12.3882 10.9608 11.8491 11.7108C11.3335 12.4608 10.689 12.8358 9.91553 12.8358C9.47021 12.8358 9.11865 12.6835 8.86084 12.3788C8.60303 12.0507 8.521 11.6757 8.61475 11.2538C8.66162 11.0194 8.75537 10.6913 8.896 10.2694C9.03662 9.84753 9.14209 9.48425 9.2124 9.17957C9.28271 8.85144 9.31787 8.57019 9.31787 8.33582C9.31787 7.98425 9.22412 7.703 9.03662 7.49207C8.84912 7.25769 8.57959 7.1405 8.22803 7.1405C7.78271 7.1405 7.40771 7.33972 7.10303 7.73816C6.79834 8.1366 6.646 8.6405 6.646 9.24988C6.646 9.48425 6.66943 9.70691 6.71631 9.91785C6.76318 10.1288 6.81006 10.2811 6.85693 10.3749L6.92725 10.5507C6.34131 12.9647 5.98975 14.4061 5.87256 14.8749C5.75537 15.4608 5.75537 16.2928 5.87256 17.371C4.2085 16.7382 2.86084 15.6835 1.82959 14.2069C0.821777 12.7303 0.317871 11.078 0.317871 9.24988C0.317871 6.83582 1.16162 4.78503 2.84912 3.09753C4.56006 1.3866 6.62256 0.531128 9.03662 0.531128C11.4507 0.531128 13.5015 1.3866 15.189 3.09753Z" fill="#071C1F"/>
</svg>
