<svg width="19" height="16" viewBox="0 0 19 16" fill="none" xmlns="http://www.w3.org/2000/svg">
<path d="M16.1733 4.59363C16.1968 4.68738 16.2085 4.83972 16.2085 5.05066C16.2085 6.29285 15.9741 7.53503 15.5054 8.77722C15.0366 9.99597 14.3687 11.121 13.5015 12.1522C12.6577 13.16 11.5562 13.9803 10.1968 14.6132C8.8374 15.246 7.3374 15.5624 5.69678 15.5624C3.63428 15.5624 1.74756 15.0116 0.0366211 13.91C0.294434 13.9335 0.587402 13.9452 0.915527 13.9452C2.62646 13.9452 4.16162 13.4178 5.521 12.3632C4.70068 12.3632 3.97412 12.1288 3.34131 11.66C2.73193 11.1678 2.31006 10.5585 2.07568 9.83191C2.31006 9.85535 2.53271 9.86707 2.74365 9.86707C3.07178 9.86707 3.3999 9.83191 3.72803 9.7616C2.88428 9.5741 2.18115 9.1405 1.61865 8.46082C1.05615 7.78113 0.774902 7.00769 0.774902 6.1405V6.07019C1.29053 6.37488 1.84131 6.53894 2.42725 6.56238C1.32568 5.81238 0.774902 4.78113 0.774902 3.46863C0.774902 2.81238 0.950684 2.19128 1.30225 1.60535C2.21631 2.75378 3.32959 3.66785 4.64209 4.34753C5.97803 5.02722 7.396 5.40222 8.896 5.47253C8.84912 5.19128 8.82568 4.91003 8.82568 4.62878C8.82568 3.62097 9.17725 2.75378 9.88037 2.02722C10.6069 1.30066 11.4741 0.937378 12.4819 0.937378C13.5601 0.937378 14.4624 1.3241 15.189 2.09753C16.0327 1.93347 16.8179 1.6405 17.5444 1.21863C17.2632 2.08582 16.7241 2.7655 15.9272 3.25769C16.6304 3.16394 17.3335 2.96472 18.0366 2.66003C17.521 3.41003 16.8999 4.05457 16.1733 4.59363Z" fill="#071C1F"/>
</svg>
