<svg width="21" height="14" viewBox="0 0 21 14" fill="none" xmlns="http://www.w3.org/2000/svg">
<path d="M19.7476 2.60925C19.8647 3.05457 19.9468 3.66394 19.9937 4.43738C20.064 5.21082 20.1108 5.87878 20.1343 6.44128V7.24988C20.1343 9.35925 20.0054 10.9178 19.7476 11.9257C19.5132 12.7928 18.939 13.3553 18.0249 13.6132C17.5796 13.7303 16.7358 13.8241 15.4937 13.8944C14.2515 13.9413 13.1147 13.9764 12.0835 13.9999H10.5366C6.52881 13.9999 4.03271 13.871 3.04834 13.6132C2.13428 13.3553 1.56006 12.7928 1.32568 11.9257C1.2085 11.4803 1.11475 10.871 1.04443 10.0975C0.997559 9.30066 0.962402 8.63269 0.938965 8.09363V7.24988C0.938965 5.16394 1.06787 3.61707 1.32568 2.60925C1.44287 2.18738 1.65381 1.8241 1.9585 1.51941C2.26318 1.21472 2.62646 1.00378 3.04834 0.886597C3.49365 0.769409 4.3374 0.687378 5.57959 0.640503C6.82178 0.57019 7.9585 0.523315 8.98975 0.499878H10.5366C14.5444 0.499878 17.0405 0.628784 18.0249 0.886597C18.4468 1.00378 18.8101 1.21472 19.1147 1.51941C19.4194 1.8241 19.6304 2.18738 19.7476 2.60925ZM8.56787 10.1327L13.5952 7.24988L8.56787 4.40222V10.1327Z" fill="#071C1F"/>
</svg>
