<svg width="15" height="11" viewBox="0 0 15 11" fill="none" xmlns="http://www.w3.org/2000/svg">
<path d="M10.009 5.43732L14.9988 8.76117V1.98416L10.009 5.43732Z" fill="#FF5A3C"/>
<path d="M0.198975 1.97934V8.75635L5.18879 5.4325L0.198975 1.97934Z" fill="#FF5A3C"/>
<path d="M14.0751 -9.15527e-05H1.12456C0.90101 0.0058866 0.687134 0.0930338 0.522306 0.245272C0.357479 0.39751 0.252799 0.604595 0.227539 0.828419L7.60043 5.93856L14.9733 0.828419C14.9475 0.604591 14.8425 0.397629 14.6776 0.24546C14.5126 0.0932909 14.2987 0.00610526 14.0751 -9.15527e-05Z" fill="#FF5A3C"/>
<path d="M9.16227 6.03203L7.85341 6.93809C7.77874 6.99021 7.69005 7.01813 7.59921 7.01811C7.50831 7.01853 7.41951 6.99057 7.34501 6.93809L6.03493 6.03079L0.227539 9.88895C0.254403 10.1112 0.35962 10.3164 0.524033 10.4671C0.688446 10.6178 0.901121 10.704 1.12333 10.7101H14.0775C14.2998 10.7043 14.5126 10.6182 14.6771 10.4674C14.8416 10.3166 14.9467 10.1113 14.9733 9.88895L9.16227 6.03203Z" fill="#FF5A3C"/>
</svg>
