<svg width="12" height="13" viewBox="0 0 12 13" fill="none" xmlns="http://www.w3.org/2000/svg">
<path d="M5.50099 6.26194C5.9298 6.26602 6.35474 6.18647 6.74832 6.02844C7.14189 5.8704 7.49531 5.63743 7.78568 5.34457C8.39422 4.74542 8.73314 3.95312 8.73314 3.12975C8.73314 2.30638 8.39422 1.51412 7.78568 0.91497C7.49214 0.626018 7.13806 0.395821 6.74517 0.238465C6.35229 0.0811101 5.9289 -9.15527e-05 5.50099 -9.15527e-05C5.07308 -9.15527e-05 4.64969 0.0811101 4.25681 0.238465C3.86393 0.395821 3.50984 0.626018 3.2163 0.91497C2.60832 1.51438 2.26978 2.30654 2.26978 3.12975C2.26978 3.95296 2.60832 4.74516 3.2163 5.34457C3.50667 5.63743 3.86009 5.8704 4.25367 6.02844C4.64724 6.18647 5.07218 6.26602 5.50099 6.26194Z" fill="#FF5A3C"/>
<path d="M11.1541 9.99534C11.1335 9.71985 11.0975 9.44552 11.0461 9.17352C10.9951 8.89467 10.9255 8.61906 10.8376 8.34824C10.7488 8.08118 10.6314 7.82304 10.4871 7.57772C10.3462 7.33311 10.1681 7.10857 9.95836 6.91096C9.74244 6.71128 9.4864 6.55287 9.20475 6.4447C8.89693 6.33025 8.56795 6.27281 8.23637 6.27565C8.04162 6.29568 7.85827 6.37099 7.71135 6.4913C7.55309 6.59038 7.36971 6.70578 7.16373 6.83284C6.94241 6.96106 6.70435 7.06252 6.45533 7.13475C5.89502 7.31653 5.28485 7.31653 4.72454 7.13475C4.47591 7.06254 4.23827 6.96107 4.01741 6.83284L3.46978 6.4913C3.32272 6.37118 3.13945 6.2959 2.94477 6.27565C2.61317 6.27272 2.28417 6.33016 1.97638 6.4447C1.69481 6.55301 1.43879 6.7114 1.22277 6.91096C1.01342 7.10862 0.835764 7.33316 0.695242 7.57772C0.550972 7.82304 0.433575 8.08118 0.344814 8.34824C0.256338 8.61891 0.186694 8.89456 0.136315 9.17352C0.0850883 9.44558 0.0486156 9.71988 0.027039 9.99534C0.00945476 10.2448 0.000662765 10.5024 0.000662765 10.7635C-0.0137319 11.063 0.0375106 11.362 0.151288 11.6425C0.265065 11.923 0.439009 12.1792 0.662584 12.3955C0.888196 12.5974 1.1555 12.7549 1.44841 12.8585C1.74133 12.9621 2.05379 13.0095 2.367 12.9981H8.82669C9.1399 13.0095 9.45236 12.9621 9.74527 12.8585C10.0382 12.7549 10.3055 12.5974 10.5311 12.3955C10.7551 12.1794 10.9293 11.9233 11.0431 11.6428C11.1569 11.3622 11.2079 11.063 11.193 10.7635C11.1817 10.5012 11.1679 10.2425 11.1541 9.99534Z" fill="#FF5A3C"/>
</svg>
