<svg width="13" height="12" viewBox="0 0 13 12" fill="none" xmlns="http://www.w3.org/2000/svg">
<path d="M7.12085 11.5907C8.05254 11.4689 8.87025 10.5371 9.38441 9.16799C8.6404 9.00943 7.88208 8.92455 7.12085 8.91463V11.5907Z" fill="#FF5A3C"/>
<path d="M8.6112 11.3739L8.77597 11.3264L8.91227 11.2825L9.0721 11.2277L9.20715 11.1765L9.36202 11.1144L9.49583 11.056L9.64571 10.9865L9.77581 10.922L9.92077 10.8452L10.0447 10.7733L10.1859 10.6905L10.3098 10.6126L10.4461 10.5212L10.57 10.4384L10.7026 10.3397L10.8178 10.2508C10.8611 10.2167 10.9033 10.1802 10.9417 10.1448L11.0519 10.0498C11.094 10.0133 11.1337 9.97432 11.1758 9.93656C11.2179 9.89881 11.2464 9.87079 11.2811 9.83668L11.2997 9.81721C10.8253 9.58349 10.3269 9.40014 9.81297 9.27029C9.54096 10.0925 9.06194 10.8337 8.42041 11.425L8.47368 11.4129L8.6112 11.3739Z" fill="#FF5A3C"/>
<path d="M12.9964 6.00391H10.3847C10.3746 6.97675 10.2266 7.94346 9.94482 8.87607C10.5184 9.0221 11.073 9.23259 11.5976 9.50337C12.4529 8.5264 12.946 7.29318 12.9964 6.00511V6.00391Z" fill="#FF5A3C"/>
<path d="M7.12085 5.58827H9.95061C9.93946 4.64988 9.79517 3.71761 9.52193 2.81842C8.73356 2.98973 7.92942 3.08115 7.1221 3.09126L7.12085 5.58827Z" fill="#FF5A3C"/>
<path d="M7.12085 -0.000106812V2.67961C7.88208 2.66968 8.6404 2.58481 9.38441 2.42625C8.87025 1.05716 8.05377 0.130225 7.12085 0.00354733V-0.000106812Z" fill="#FF5A3C"/>
<path d="M7.12329 8.5009C7.93061 8.51106 8.73477 8.60248 9.52314 8.77374C9.79635 7.87455 9.94062 6.9423 9.95181 6.00391H7.12329V8.5009Z" fill="#FF5A3C"/>
<path d="M11.5976 2.08984C11.073 2.36063 10.5184 2.57112 9.94482 2.71714C10.2266 3.64975 10.3746 4.61647 10.3846 5.58931H12.9963C12.9459 4.30127 12.4528 3.06808 11.5976 2.09106V2.08984Z" fill="#FF5A3C"/>
<path d="M11.3059 1.77482L11.2873 1.75533C11.2526 1.72123 11.2167 1.68834 11.182 1.65545C11.1473 1.62257 11.1015 1.57872 11.0581 1.54218C11.0148 1.50563 10.985 1.48005 10.9478 1.44839C10.9107 1.41672 10.8636 1.37652 10.824 1.34241C10.7843 1.30831 10.7471 1.28273 10.71 1.2535C10.6728 1.22426 10.622 1.1865 10.5774 1.15483L10.4535 1.07201C10.4077 1.04034 10.3618 1.00989 10.316 0.979435L10.1921 0.902698L10.0496 0.818652L9.92572 0.748005L9.77951 0.67005L9.64945 0.605494L9.49704 0.534847L9.36448 0.477598L9.2059 0.415477L9.07085 0.36432L8.91103 0.309507L8.77472 0.264439L8.60995 0.216935L8.47368 0.180394L8.42041 0.168213C9.0619 0.759594 9.54091 1.5008 9.81297 2.32295C10.3295 2.19331 10.8305 2.00955 11.3071 1.77482H11.3059Z" fill="#FF5A3C"/>
<path d="M0.810059 5.58813H3.42175C3.43183 4.6153 3.57986 3.64859 3.86158 2.71596C3.28797 2.57002 2.73339 2.35953 2.20883 2.08867C1.35326 3.06596 0.860142 4.29965 0.810059 5.58813H0.810059Z" fill="#FF5A3C"/>
<path d="M6.6864 11.5919V8.91225C5.92517 8.92217 5.16687 9.00702 4.42285 9.16557C4.93701 10.5383 5.75347 11.4653 6.6864 11.5919Z" fill="#FF5A3C"/>
<path d="M6.68031 6.00391H3.85181C3.86294 6.9423 4.00722 7.87456 4.28048 8.77374C5.06884 8.60238 5.87298 8.51095 6.68031 8.5009V6.00391Z" fill="#FF5A3C"/>
<path d="M6.6864 -0.000106812C5.75471 0.121698 4.93701 1.05351 4.42285 2.4226C5.16686 2.58121 5.92516 2.66609 6.6864 2.67595V-0.000106812Z" fill="#FF5A3C"/>
<path d="M6.68031 3.09126C5.87299 3.08115 5.06885 2.98972 4.28048 2.81842C4.00721 3.7176 3.86292 4.64987 3.85181 5.58826H6.68031V3.09126Z" fill="#FF5A3C"/>
<path d="M5.38689 0.168213L5.33362 0.180393L5.19609 0.218153L5.03256 0.265657L4.89503 0.310725L4.73521 0.365537L4.60016 0.416695L4.44529 0.478816L4.31149 0.537282L4.16158 0.606712L4.03149 0.671268L3.88653 0.748005L3.76264 0.81987L3.6214 0.902698L3.4975 0.980653L3.36122 1.07201L3.23732 1.15483C3.19272 1.1865 3.1506 1.22061 3.10476 1.2535C3.05891 1.28638 3.0267 1.31196 2.98954 1.34241C2.95237 1.37287 2.90405 1.41184 2.86564 1.44717C2.82724 1.48249 2.79131 1.50929 2.75414 1.54217C2.71697 1.57506 2.67236 1.61769 2.63024 1.65545C2.58812 1.69321 2.55962 1.72123 2.52493 1.75533L2.50635 1.77482C2.98071 2.00863 3.47912 2.19197 3.99308 2.32173C4.26488 1.5001 4.74347 0.759323 5.38441 0.168213H5.38689Z" fill="#FF5A3C"/>
<path d="M2.62528 9.93541C2.66617 9.97317 2.70582 10.0121 2.74918 10.0487L2.85945 10.1425C2.90157 10.1778 2.94369 10.2143 2.98334 10.2484L3.09732 10.3374C3.14068 10.3715 3.18405 10.4043 3.23113 10.4372L3.35502 10.5201L3.49254 10.6126L3.61644 10.6894L3.75892 10.7734L3.88281 10.8441L4.02901 10.9208L4.1591 10.9854L4.31149 11.056L4.44406 11.1132L4.60016 11.1754L4.7352 11.2265L4.89503 11.2813L5.03132 11.3252L5.19609 11.3727L5.33238 11.4105L5.38565 11.4226C4.74417 10.8312 4.26514 10.0901 3.99308 9.26791C3.47906 9.39806 2.98066 9.58179 2.50635 9.81601L2.52493 9.83553C2.55467 9.86964 2.58935 9.90252 2.62528 9.93541Z" fill="#FF5A3C"/>
<path d="M2.20883 9.50216C2.73342 9.23138 3.28799 9.0209 3.86158 8.87487C3.57986 7.94224 3.43183 6.97555 3.42175 6.00272H0.810059C0.860239 7.29118 1.35334 8.52482 2.20883 9.50216Z" fill="#FF5A3C"/>
</svg>
