<svg width="15" height="15" viewBox="0 0 15 15" fill="none" xmlns="http://www.w3.org/2000/svg">
<path d="M7.03687 3.40625C5.03687 3.40625 3.44312 5.03125 3.44312 7C3.44312 9 5.03687 10.5938 7.03687 10.5938C9.00562 10.5938 10.6306 9 10.6306 7C10.6306 5.03125 9.00562 3.40625 7.03687 3.40625ZM7.03687 9.34375C5.75562 9.34375 4.69312 8.3125 4.69312 7C4.69312 5.71875 5.72437 4.6875 7.03687 4.6875C8.31812 4.6875 9.34937 5.71875 9.34937 7C9.34937 8.3125 8.31812 9.34375 7.03687 9.34375ZM11.5994 3.28125C11.5994 2.8125 11.2244 2.4375 10.7556 2.4375C10.2869 2.4375 9.91187 2.8125 9.91187 3.28125C9.91187 3.75 10.2869 4.125 10.7556 4.125C11.2244 4.125 11.5994 3.75 11.5994 3.28125ZM13.9744 4.125C13.9119 3 13.6619 2 12.8494 1.1875C12.0369 0.375 11.0369 0.125 9.91187 0.0625C8.75562 0 5.28687 0 4.13062 0.0625C3.00562 0.125 2.03687 0.375 1.19312 1.1875C0.380615 2 0.130615 3 0.0681152 4.125C0.00561523 5.28125 0.00561523 8.75 0.0681152 9.90625C0.130615 11.0312 0.380615 12 1.19312 12.8438C2.03687 13.6562 3.00562 13.9062 4.13062 13.9688C5.28687 14.0312 8.75562 14.0312 9.91187 13.9688C11.0369 13.9062 12.0369 13.6562 12.8494 12.8438C13.6619 12 13.9119 11.0312 13.9744 9.90625C14.0369 8.75 14.0369 5.28125 13.9744 4.125ZM12.4744 11.125C12.2556 11.75 11.7556 12.2188 11.1619 12.4688C10.2244 12.8438 8.03687 12.75 7.03687 12.75C6.00562 12.75 3.81812 12.8438 2.91187 12.4688C2.28687 12.2188 1.81812 11.75 1.56812 11.125C1.19312 10.2188 1.28687 8.03125 1.28687 7C1.28687 6 1.19312 3.8125 1.56812 2.875C1.81812 2.28125 2.28687 1.8125 2.91187 1.5625C3.81812 1.1875 6.00562 1.28125 7.03687 1.28125C8.03687 1.28125 10.2244 1.1875 11.1619 1.5625C11.7556 1.78125 12.2244 2.28125 12.4744 2.875C12.8494 3.8125 12.7556 6 12.7556 7C12.7556 8.03125 12.8494 10.2188 12.4744 11.125Z" fill="#071C1F"/>
</svg>
