<svg width="16" height="16" viewBox="0 0 16 16" fill="none" xmlns="http://www.w3.org/2000/svg">
<path d="M15.5369 8C15.5369 3.71875 12.0681 0.25 7.78687 0.25C3.50562 0.25 0.0368652 3.71875 0.0368652 8C0.0368652 11.3125 2.06812 14.0938 4.94312 15.2188C4.88062 14.625 4.81812 13.6875 4.97437 13C5.13062 12.4062 5.88062 9.15625 5.88062 9.15625C5.88062 9.15625 5.66187 8.6875 5.66187 8C5.66187 6.9375 6.28687 6.125 7.06812 6.125C7.72437 6.125 8.03687 6.625 8.03687 7.21875C8.03687 7.875 7.59937 8.875 7.38062 9.8125C7.22437 10.5625 7.78687 11.1875 8.53687 11.1875C9.91187 11.1875 10.9744 9.75 10.9744 7.65625C10.9744 5.78125 9.63062 4.5 7.75562 4.5C5.53687 4.5 4.25562 6.15625 4.25562 7.84375C4.25562 8.53125 4.50562 9.25 4.81812 9.625C4.88062 9.6875 4.88062 9.78125 4.88062 9.84375C4.81812 10.0938 4.66187 10.625 4.66187 10.7188C4.63062 10.875 4.53687 10.9062 4.38062 10.8438C3.41187 10.375 2.81812 8.96875 2.81812 7.8125C2.81812 5.375 4.59937 3.125 7.94312 3.125C10.6306 3.125 12.7244 5.0625 12.7244 7.625C12.7244 10.2812 11.0369 12.4375 8.69312 12.4375C7.91187 12.4375 7.16187 12.0312 6.91187 11.5312C6.91187 11.5312 6.53687 13.0312 6.44312 13.375C6.25562 14.0625 5.78687 14.9062 5.47437 15.4062C6.19312 15.6562 6.97437 15.75 7.78687 15.75C12.0681 15.75 15.5369 12.2812 15.5369 8Z" fill="#071C1F"/>
</svg>
