<svg width="17" height="17" viewBox="0 0 17 17" fill="none" xmlns="http://www.w3.org/2000/svg">
<path d="M9.94734 9.97956C10.7822 9.14474 11.1996 8.14232 11.1996 6.97231C11.1996 5.80229 10.7822 4.80304 9.94734 3.97454C9.11884 3.13972 8.11958 2.72231 6.94957 2.72231C5.77955 2.72231 4.77713 3.13972 3.94231 3.97454C3.11382 4.80304 2.69957 5.80229 2.69957 6.97231C2.69957 8.14232 3.11382 9.14474 3.94231 9.97956C4.77713 10.8081 5.77955 11.2223 6.94957 11.2223C8.11958 11.2223 9.11884 10.8081 9.94734 9.97956ZM16.0567 14.8652C16.0567 15.194 15.9365 15.4786 15.6962 15.719C15.4559 15.9593 15.1713 16.0795 14.8424 16.0795C14.5009 16.0795 14.2163 15.9593 13.9886 15.719L10.7347 12.4745C9.60266 13.2588 8.34094 13.6509 6.94957 13.6509C6.04518 13.6509 5.17873 13.477 4.35024 13.1291C3.52806 12.7749 2.81657 12.3006 2.21575 11.7061C1.62126 11.1053 1.14693 10.3938 0.79276 9.57164C0.444917 8.74314 0.270996 7.8767 0.270996 6.97231C0.270996 6.06792 0.444917 5.20464 0.79276 4.38246C1.14693 3.55397 1.62126 2.84247 2.21575 2.24798C2.81657 1.64716 3.52806 1.17283 4.35024 0.824985C5.17873 0.470819 6.04518 0.293735 6.94957 0.293735C7.85396 0.293735 8.71724 0.470819 9.53941 0.824985C10.3679 1.17283 11.0794 1.64716 11.6739 2.24798C12.2747 2.84247 12.749 3.55397 13.0969 4.38246C13.4511 5.20464 13.6281 6.06792 13.6281 6.97231C13.6281 8.36368 13.236 9.6254 12.4518 10.7575L15.7057 14.0114C15.9397 14.2454 16.0567 14.53 16.0567 14.8652Z" fill="white"/>
</svg>
