<svg width="13" height="11" viewBox="0 0 13 11" fill="none" xmlns="http://www.w3.org/2000/svg">
<path d="M11.7162 3.93085L8.02714 3.41394L6.37408 0.181233C6.33839 0.125832 6.2885 0.0800961 6.22915 0.0483744C6.1698 0.0166527 6.10296 0 6.03499 0C5.96702 0 5.90018 0.0166527 5.84083 0.0483744C5.78148 0.0800961 5.73159 0.125832 5.6959 0.181233L4.04284 3.41394L0.353821 3.93085C0.287107 3.93796 0.223847 3.96298 0.17134 4.00303C0.118833 4.04308 0.0792169 4.09653 0.0570617 4.15722C0.0349066 4.2179 0.0311149 4.28335 0.046124 4.34601C0.0611331 4.40867 0.0943316 4.46599 0.14189 4.51136L2.82635 7.03231L2.18915 10.5979C2.18049 10.6634 2.19095 10.7299 2.21936 10.79C2.24777 10.8502 2.29303 10.9016 2.3501 10.9386C2.40718 10.9756 2.47384 10.9967 2.54269 10.9997C2.61155 11.0026 2.6799 10.9872 2.74017 10.9551L6.03499 9.28262L9.32981 10.9538C9.39008 10.9858 9.45843 11.0012 9.52729 10.9983C9.59614 10.9954 9.66281 10.9742 9.71988 10.9372C9.77695 10.9002 9.82221 10.8488 9.85062 10.7887C9.87903 10.7285 9.88949 10.662 9.88084 10.5965L9.24787 7.03366L11.9323 4.51271C11.9799 4.46735 12.0131 4.41002 12.0281 4.34736C12.0431 4.2847 12.0393 4.21925 12.0172 4.15857C11.995 4.09788 11.9554 4.04443 11.9029 4.00438C11.8504 3.96433 11.7871 3.93931 11.7204 3.93221L11.7162 3.93085Z" fill="#FFC107"/>
</svg>
