<svg width="16" height="14" viewBox="0 0 16 14" fill="none" xmlns="http://www.w3.org/2000/svg">
<path d="M14.3806 3.75C15.0056 3.28125 15.5681 2.71875 16.0056 2.0625C15.4431 2.3125 14.7869 2.5 14.1306 2.5625C14.8181 2.15625 15.3181 1.53125 15.5681 0.75C14.9431 1.125 14.2244 1.40625 13.5056 1.5625C12.8806 0.90625 12.0369 0.53125 11.0994 0.53125C9.28687 0.53125 7.81812 2 7.81812 3.8125C7.81812 4.0625 7.84937 4.3125 7.91187 4.5625C5.19312 4.40625 2.75562 3.09375 1.13062 1.125C0.849365 1.59375 0.693115 2.15625 0.693115 2.78125C0.693115 3.90625 1.25562 4.90625 2.16187 5.5C1.63062 5.46875 1.09937 5.34375 0.661865 5.09375V5.125C0.661865 6.71875 1.78687 8.03125 3.28687 8.34375C3.03687 8.40625 2.72437 8.46875 2.44312 8.46875C2.22437 8.46875 2.03687 8.4375 1.81812 8.40625C2.22437 9.71875 3.44312 10.6562 4.88062 10.6875C3.75562 11.5625 2.34937 12.0938 0.818115 12.0938C0.536865 12.0938 0.286865 12.0625 0.0368652 12.0312C1.47437 12.9688 3.19312 13.5 5.06812 13.5C11.0994 13.5 14.3806 8.53125 14.3806 4.1875C14.3806 4.03125 14.3806 3.90625 14.3806 3.75Z" fill="#071C1F"/>
</svg>
