<svg width="18" height="12" viewBox="0 0 18 12" fill="none" xmlns="http://www.w3.org/2000/svg">
<path d="M17.1931 1.90625C17.0056 1.15625 16.4119 0.5625 15.6931 0.375C14.3494 0 9.03687 0 9.03687 0C9.03687 0 3.69312 0 2.34937 0.375C1.63062 0.5625 1.03687 1.15625 0.849365 1.90625C0.474365 3.21875 0.474365 6.03125 0.474365 6.03125C0.474365 6.03125 0.474365 8.8125 0.849365 10.1562C1.03687 10.9062 1.63062 11.4688 2.34937 11.6562C3.69312 12 9.03687 12 9.03687 12C9.03687 12 14.3494 12 15.6931 11.6562C16.4119 11.4688 17.0056 10.9062 17.1931 10.1562C17.5681 8.8125 17.5681 6.03125 17.5681 6.03125C17.5681 6.03125 17.5681 3.21875 17.1931 1.90625ZM7.28687 8.5625V3.5L11.7244 6.03125L7.28687 8.5625Z" fill="#FF5A3C"/>
</svg>
