<svg width="21" height="23" viewBox="0 0 21 23" fill="none" xmlns="http://www.w3.org/2000/svg">
<path fill-rule="evenodd" clip-rule="evenodd" d="M9.31209 0.373456C9.88495 0.0552017 10.5815 0.0552024 11.1544 0.373456L19.431 4.97161C20.0332 5.30614 20.4066 5.94082 20.4066 6.62966V15.758C20.4066 16.4468 20.0332 17.0815 19.431 17.416L11.1544 22.0142C10.5815 22.3324 9.88495 22.3325 9.31209 22.0142L1.03541 17.416C0.433265 17.0815 0.0598145 16.4468 0.0598145 15.758V6.62966C0.0598145 5.94082 0.433267 5.30614 1.03542 4.97161L9.31209 0.373456ZM10.317 1.88077C10.2649 1.85184 10.2016 1.85184 10.1495 1.88077L1.87281 6.47893C1.81807 6.50934 1.78412 6.56704 1.78412 6.62966V15.758C1.78412 15.8206 1.81807 15.8783 1.87281 15.9087L10.1495 20.5069C10.2016 20.5358 10.2649 20.5358 10.317 20.5069L18.5936 15.9087C18.6484 15.8783 18.6823 15.8206 18.6823 15.758V6.62966C18.6823 6.56704 18.6484 6.50934 18.5936 6.47892L10.317 1.88077Z" fill="#FF5A3C"/>
<path fill-rule="evenodd" clip-rule="evenodd" d="M4.77292 11.1938C4.77292 8.17818 7.21758 5.73352 10.2332 5.73352C13.2489 5.73352 15.6935 8.17818 15.6935 11.1938C15.6935 14.2095 13.2489 16.6541 10.2332 16.6541C7.21758 16.6541 4.77292 14.2095 4.77292 11.1938ZM10.2332 7.45783C8.16989 7.45783 6.49723 9.13049 6.49723 11.1938C6.49723 13.2572 8.16989 14.9298 10.2332 14.9298C12.2966 14.9298 13.9692 13.2572 13.9692 11.1938C13.9692 9.13049 12.2966 7.45783 10.2332 7.45783Z" fill="#FF5A3C"/>
</svg>
