<svg width="21" height="14" viewBox="0 0 21 14" fill="none" xmlns="http://www.w3.org/2000/svg">
<path d="M10.1626 3.3125C9.77588 3.34766 9.38916 3.38281 9.0376 3.48828C9.21338 3.76953 9.28369 4.12109 9.31885 4.4375C9.31885 5.52734 8.40479 6.40625 7.3501 6.40625C6.99854 6.40625 6.64697 6.33594 6.40088 6.16016C6.29541 6.51172 6.2251 6.86328 6.2251 7.25C6.2251 9.42969 7.98291 11.1875 10.1626 11.1875C12.3423 11.1875 14.1001 9.42969 14.1001 7.25C14.1001 5.10547 12.3423 3.34766 10.1626 3.34766V3.3125ZM20.147 6.75781C18.2485 3.03125 14.4517 0.5 10.1626 0.5C5.83838 0.5 2.0415 3.03125 0.143066 6.75781C0.0727539 6.89844 0.0375977 7.07422 0.0375977 7.25C0.0375977 7.46094 0.0727539 7.63672 0.143066 7.77734C2.0415 11.5039 5.83838 14 10.1626 14C14.4517 14 18.2485 11.5039 20.147 7.77734C20.2173 7.63672 20.2524 7.46094 20.2524 7.28516C20.2524 7.07422 20.2173 6.89844 20.147 6.75781ZM10.1626 12.3125C6.68213 12.3125 3.48291 10.3789 1.79541 7.25C3.48291 4.12109 6.68213 2.1875 10.1626 2.1875C13.6079 2.1875 16.8071 4.12109 18.4946 7.25C16.8071 10.3789 13.6079 12.3125 10.1626 12.3125Z" fill="white"/>
</svg>
