<svg width="18" height="18" viewBox="0 0 18 18" fill="none" xmlns="http://www.w3.org/2000/svg">
<path d="M4.994 7.37899L3.795 8.56899L7.644 12.412L16.203 3.88099L15.003 2.68699L7.644 10.023L4.994 7.37899ZM15.35 8.99999C15.3544 10.3551 14.9565 11.6811 14.2068 12.81C13.4571 13.9388 12.3893 14.8199 11.1385 15.3415C9.88778 15.8631 8.51039 16.0018 7.18076 15.7401C5.85112 15.4784 4.62905 14.828 3.66928 13.8713C2.7095 12.9147 2.0552 11.6947 1.78922 10.3659C1.52324 9.0371 1.65754 7.65928 2.17512 6.40687C2.6927 5.15446 3.57028 4.0838 4.69674 3.33047C5.82319 2.57713 7.14786 2.175 8.503 2.17499C9.13965 2.17043 9.77369 2.25663 10.386 2.43099L11.755 1.06899C10.7097 0.697627 9.61198 0.49509 8.503 0.468994C6.81694 0.474528 5.17031 0.979562 3.77109 1.92032C2.37186 2.86107 1.28278 4.19536 0.641379 5.75468C-2.0504e-05 7.31399 -0.164973 9.0284 0.167353 10.6814C0.499679 12.3344 1.31438 13.8519 2.50857 15.0422C3.70276 16.2324 5.22288 17.0422 6.87696 17.3691C8.53104 17.696 10.2449 17.5254 11.8021 16.8789C13.3593 16.2324 14.69 15.1389 15.6262 13.7366C16.5624 12.3343 17.062 10.6861 17.062 8.99999H15.35Z" fill="#FF5A3C"/>
</svg>
