<svg width="15" height="16" viewBox="0 0 15 16" fill="none" xmlns="http://www.w3.org/2000/svg">
<path d="M0.42041 7.88696C0.42041 8.24243 0.557129 8.57056 0.803223 8.81665L6.57275 14.5862C7.09229 15.1057 7.93994 15.1057 8.43213 14.5862L14.0103 9.00806C14.5298 8.51587 14.5298 7.66821 14.0103 7.14868L8.24072 1.37915C7.99463 1.13306 7.6665 0.968994 7.31104 0.968994H1.73291C0.994629 0.968994 0.42041 1.57056 0.42041 2.28149V7.88696ZM3.48291 2.71899C4.19385 2.71899 4.79541 3.32056 4.79541 4.03149C4.79541 4.76978 4.19385 5.34399 3.48291 5.34399C2.74463 5.34399 2.17041 4.76978 2.17041 4.03149C2.17041 3.32056 2.74463 2.71899 3.48291 2.71899Z" fill="white"/>
</svg>
