<svg width="16" height="13" viewBox="0 0 16 13" fill="none" xmlns="http://www.w3.org/2000/svg">
<path d="M5.45947 6.45365C5.67153 6.24159 5.77755 5.98769 5.77755 5.69193C5.77755 5.39617 5.67153 5.14505 5.45947 4.93858C5.253 4.72653 5.00188 4.6205 4.70612 4.6205C4.41037 4.6205 4.15646 4.72653 3.94441 4.93858C3.73793 5.14505 3.6347 5.39617 3.6347 5.69193C3.6347 5.98769 3.73793 6.24159 3.94441 6.45365C4.15646 6.66012 4.41037 6.76336 4.70612 6.76336C5.00188 6.76336 5.253 6.66012 5.45947 6.45365ZM8.67376 6.45365C8.88581 6.24159 8.99184 5.98769 8.99184 5.69193C8.99184 5.39617 8.88581 5.14505 8.67376 4.93858C8.46729 4.72653 8.21617 4.6205 7.92041 4.6205C7.62465 4.6205 7.37075 4.72653 7.15869 4.93858C6.95222 5.14505 6.84898 5.39617 6.84898 5.69193C6.84898 5.98769 6.95222 6.24159 7.15869 6.45365C7.37075 6.66012 7.62465 6.76336 7.92041 6.76336C8.21617 6.76336 8.46729 6.66012 8.67376 6.45365ZM11.888 6.45365C12.1001 6.24159 12.2061 5.98769 12.2061 5.69193C12.2061 5.39617 12.1001 5.14505 11.888 4.93858C11.6816 4.72653 11.4305 4.6205 11.1347 4.6205C10.8389 4.6205 10.585 4.72653 10.373 4.93858C10.1665 5.14505 10.0633 5.39617 10.0633 5.69193C10.0633 5.98769 10.1665 6.24159 10.373 6.45365C10.585 6.66012 10.8389 6.76336 11.1347 6.76336C11.4305 6.76336 11.6816 6.66012 11.888 6.45365ZM14.4159 3.00499C15.0856 3.8253 15.4204 4.72095 15.4204 5.69193C15.4204 6.66291 15.0856 7.56135 14.4159 8.38724C13.7463 9.20755 12.8367 9.85767 11.6872 10.3376C10.5376 10.8119 9.28202 11.0491 7.92041 11.0491C7.30657 11.0491 6.71784 10.9988 6.15423 10.8984C5.18883 11.8638 3.9751 12.5028 2.51304 12.8153C2.22287 12.8711 1.98291 12.9073 1.79318 12.9241C1.72621 12.9297 1.66483 12.9129 1.60903 12.8738C1.55322 12.8348 1.51695 12.7846 1.50021 12.7232C1.47789 12.6395 1.53369 12.5362 1.66762 12.4135C1.69552 12.3856 1.7597 12.3242 1.86014 12.2293C1.96617 12.14 2.03871 12.0759 2.07778 12.0368C2.11684 11.9977 2.18101 11.9252 2.2703 11.8192C2.36516 11.7187 2.43213 11.6322 2.47119 11.5597C2.51583 11.4871 2.57443 11.3839 2.64697 11.25C2.71952 11.116 2.77532 10.9821 2.81438 10.8482C2.85345 10.7143 2.89251 10.5552 2.93157 10.3711C2.97621 10.1813 3.01249 9.97764 3.04039 9.76001C2.22566 9.25778 1.58391 8.6551 1.11516 7.95197C0.651995 7.24327 0.42041 6.48992 0.42041 5.69193C0.42041 4.72095 0.755232 3.8253 1.42487 3.00499C2.09452 2.17909 3.00412 1.52898 4.15367 1.05465C5.30322 0.574741 6.5588 0.334786 7.92041 0.334786C9.28202 0.334786 10.5376 0.574741 11.6872 1.05465C12.8367 1.52898 13.7463 2.17909 14.4159 3.00499Z" fill="white"/>
</svg>
