<svg width="75" height="66" viewBox="0 0 75 66" fill="none" xmlns="http://www.w3.org/2000/svg">
<path d="M67.9688 32.875H56.25V23.5C56.25 18.373 60.3516 14.125 65.625 14.125H66.7969C68.7012 14.125 70.3125 12.6602 70.3125 10.6094V3.57812C70.3125 1.67383 68.7012 0.0625 66.7969 0.0625H65.625C52.5879 0.0625 42.1875 10.6094 42.1875 23.5V58.6562C42.1875 62.6113 45.2637 65.6875 49.2188 65.6875H67.9688C71.7773 65.6875 75 62.6113 75 58.6562V39.9062C75 36.0977 71.7773 32.875 67.9688 32.875ZM25.7812 32.875H14.0625V23.5C14.0625 18.373 18.1641 14.125 23.4375 14.125H24.6094C26.5137 14.125 28.125 12.6602 28.125 10.6094V3.57812C28.125 1.67383 26.5137 0.0625 24.6094 0.0625H23.4375C10.4004 0.0625 0 10.6094 0 23.5V58.6562C0 62.6113 3.07617 65.6875 7.03125 65.6875H25.7812C29.5898 65.6875 32.8125 62.6113 32.8125 58.6562V39.9062C32.8125 36.0977 29.5898 32.875 25.7812 32.875Z" fill="white"/>
</svg>
