<svg width="16" height="16" viewBox="0 0 16 16" fill="none" xmlns="http://www.w3.org/2000/svg">
<path d="M7.92041 9.36157C10.2349 9.36157 12.1392 7.48657 12.1392 5.14282C12.1392 2.82837 10.2349 0.924072 7.92041 0.924072C5.57666 0.924072 3.70166 2.82837 3.70166 5.14282C3.70166 7.48657 5.57666 9.36157 7.92041 9.36157ZM11.6704 10.2991H10.0298C9.38525 10.6213 8.68213 10.7678 7.92041 10.7678C7.15869 10.7678 6.42627 10.6213 5.78174 10.2991H4.17041C2.09033 10.2991 0.42041 11.9983 0.42041 14.0491V14.5178C0.42041 15.3088 1.03564 15.9241 1.82666 15.9241H14.0142C14.7759 15.9241 15.4204 15.3088 15.4204 14.5178V14.0491C15.4204 11.9983 13.7212 10.2991 11.6704 10.2991Z" fill="white"/>
</svg>
